<svg width="257" height="249" viewBox="0 0 257 249" fill="none" xmlns="http://www.w3.org/2000/svg">
<g filter="url(#filter0_d)">
<path fill-rule="evenodd" clip-rule="evenodd" d="M52.9635 114.175C48.6862 173.18 81.9675 208.325 100.324 218.881L107.802 205.878C93.7119 197.776 64.1205 167.732 67.9242 115.259L52.9635 114.175ZM199.137 114.789C203.414 173.794 170.132 208.939 151.776 219.496L144.298 206.493C158.388 198.39 187.98 168.347 184.176 115.873L199.137 114.789Z" fill="#910932"/>
</g>
<g filter="url(#filter1_d)">
<path fill-rule="evenodd" clip-rule="evenodd" d="M12.8439 32.7231C11.0341 30.6374 7.8762 30.4137 5.79049 32.2235C3.70479 34.0333 3.4811 37.1912 5.29088 39.2769L31.322 69.2769C31.8709 69.9094 32.5697 70.3939 33.3546 70.686L77.6889 87.186C80.2769 88.1492 83.1557 86.832 84.1189 84.244C85.082 81.656 83.7649 78.7772 81.1769 77.814L38.0386 61.7592L12.8439 32.7231ZM13.1422 163.79C11.049 165.591 7.89205 165.354 6.09088 163.261C4.28972 161.168 4.52641 158.011 6.61956 156.21L31.0238 135.21C31.3815 134.902 31.781 134.647 32.2105 134.451L57.4282 122.951C59.9407 121.805 62.9063 122.913 64.0521 125.425C65.1978 127.938 64.0899 130.904 61.5774 132.049L37.0071 143.254L13.1422 163.79ZM30.7422 91.2532C31.6561 90.4457 32.8335 90 34.053 90H65.1971C67.9585 90 70.1971 92.2386 70.1971 95C70.1971 97.7614 67.9585 100 65.1971 100H35.9456L13.5984 119.747C11.5291 121.575 8.3693 121.38 6.54079 119.311C4.71228 117.242 4.90748 114.082 6.97679 112.253L30.7422 91.2532ZM243.59 32.7232C245.4 30.6375 248.558 30.4138 250.644 32.2236C252.729 34.0333 252.953 37.1913 251.143 39.277L225.112 69.277C224.563 69.9095 223.864 70.394 223.08 70.6861L178.745 87.1861C176.157 88.1492 173.279 86.8321 172.315 84.2441C171.352 81.6561 172.669 78.7773 175.257 77.8141L218.396 61.7592L243.59 32.7232ZM243.292 163.79C245.385 165.591 248.542 165.355 250.343 163.261C252.145 161.168 251.908 158.011 249.815 156.21L225.41 135.21C225.053 134.902 224.653 134.647 224.224 134.451L199.006 122.951C196.494 121.805 193.528 122.913 192.382 125.425C191.236 127.938 192.344 130.904 194.857 132.049L219.427 143.254L243.292 163.79ZM225.692 91.2533C224.778 90.4458 223.601 90.0001 222.381 90.0001H191.237C188.476 90.0001 186.237 92.2386 186.237 95.0001C186.237 97.7615 188.476 100 191.237 100H220.489L242.836 119.747C244.905 121.575 248.065 121.38 249.893 119.311C251.722 117.242 251.527 114.082 249.457 112.253L225.692 91.2533Z" fill="#232323"/>
</g>
<g filter="url(#filter2_d)">
<path fill-rule="evenodd" clip-rule="evenodd" d="M84.535 53.4657C82.4067 58.0231 81.3565 61.8437 81.0776 64.5772L125.913 196.638L169.927 64.5971C169.656 61.8338 168.617 57.9827 166.517 53.4023C164.098 48.1258 160.549 42.4954 156.174 37.3605C147.132 26.7481 136.16 20 126 20C115.498 20 104.264 26.8322 95.0676 37.4292C90.6084 42.5676 86.9956 48.1968 84.535 53.4657ZM126 0C144.601 0 160.629 11.7519 171.397 24.3895C176.927 30.8796 181.485 38.0617 184.697 45.0665C187.844 51.9308 190 59.2839 190 66C190 67.0748 189.827 68.1426 189.487 69.1623L135.522 231.056C135.459 231.251 135.39 231.445 135.316 231.636C134.803 232.954 134.035 234.106 133.09 235.055C132.147 236.004 131.001 236.776 129.688 237.295C128.535 237.753 127.295 237.999 126.028 238.003C124.761 238.006 123.519 237.767 122.364 237.316C121.047 236.803 119.896 236.037 118.948 235.093C117.998 234.15 117.225 233.002 116.705 231.688C116.629 231.497 116.559 231.304 116.495 231.109L61.5308 69.2148C61.1793 68.1795 61 67.0934 61 66C61 59.2472 63.2063 51.871 66.4137 45.003C69.6885 37.9907 74.3332 30.8074 79.9623 24.3208C90.9428 11.6678 107.209 0 126 0Z" fill="#910932"/>
</g>
<g filter="url(#filter3_d)">
<path fill-rule="evenodd" clip-rule="evenodd" d="M103.045 51C106.384 51 109.091 48.3137 109.091 45C109.091 41.6863 106.384 39 103.045 39C99.7066 39 97 41.6863 97 45C97 48.3137 99.7066 51 103.045 51ZM147.955 51C151.293 51 154 48.3137 154 45C154 41.6863 151.293 39 147.955 39C144.616 39 141.909 41.6863 141.909 45C141.909 48.3137 144.616 51 147.955 51Z" fill="#910932"/>
</g>
<path fill-rule="evenodd" clip-rule="evenodd" d="M70.6843 56.0039C75.0705 55.881 79.0244 58.6318 80.4343 62.787L87.2008 82.7305C105.028 80.9525 115.117 80 125.423 80C135.503 80 145.712 80.9114 163.531 82.6205L169.997 62.8863C171.369 58.6981 175.322 55.9022 179.728 56.0026C184.134 56.103 187.955 59.0761 189.135 63.3224C218.349 168.447 220.417 199.088 220.417 208.307C220.417 213.625 220.343 220.933 216.867 227.896C213.17 235.299 206.498 240.812 196.574 244.924C185.265 249.61 173.555 249.927 163.774 246.914C154.206 243.966 145.316 237.348 142.11 227.251C138.147 214.773 134.347 199.839 131.232 185.643C130.85 183.899 130.941 182.083 131.497 180.386L135.117 169.338C128.976 167.565 122.537 167.585 116.594 169.364L120.47 180.787C121.055 182.512 121.158 184.364 120.768 186.143C117.59 200.626 113.162 215.113 109.307 227.251C106.101 237.348 97.2106 243.966 87.6427 246.914C77.8616 249.927 66.1518 249.61 54.8434 244.924C44.9195 240.812 38.2467 235.299 34.5503 227.896C31.0738 220.933 31 213.625 31 208.307C31 199.183 32.0633 168.634 61.3296 63.3224C62.5045 59.0947 66.2982 56.1268 70.6843 56.0039ZM111.768 155.14C120.83 152.314 130.605 152.327 139.787 155.087L145.25 138.412C135.325 137.446 130.109 137 124.923 137C119.911 137 115.048 137.416 106.062 138.321L111.768 155.14ZM157.147 102.103L151.631 118.939C138.874 117.682 131.796 117 124.923 117C118.137 117 111.389 117.665 99.4674 118.885L93.7978 102.174C108.831 100.693 117.074 100 125.423 100C133.645 100 142.036 100.672 157.147 102.103ZM72.0518 100.329C51.3757 179.43 51 202.634 51 208.307C51 213.813 51.3103 216.692 52.4437 218.961C53.3573 220.791 55.5202 223.555 62.4993 226.447C69.6306 229.402 76.5525 229.403 81.7536 227.8C87.168 226.132 89.6101 223.199 90.2454 221.198C93.8205 209.94 97.7098 197.204 100.627 184.549L72.0518 100.329ZM200.417 208.307C200.417 202.73 199.331 179.696 178.591 100.889L151.356 184.01C154.266 196.993 157.689 210.23 161.172 221.198C161.807 223.199 164.249 226.132 169.663 227.8C174.865 229.403 181.786 229.402 188.918 226.447C195.897 223.555 198.06 220.791 198.973 218.961C200.107 216.692 200.417 213.813 200.417 208.307Z" fill="#232323"/>
<defs>
<filter id="filter0_d" x="49.5878" y="114.175" width="152.924" height="112.321" filterUnits="userSpaceOnUse" color-interpolation-filters="sRGB">
<feFlood flood-opacity="0" result="BackgroundImageFix"/>
<feColorMatrix in="SourceAlpha" type="matrix" values="0 0 0 0 0 0 0 0 0 0 0 0 0 0 0 0 0 0 127 0"/>
<feOffset dy="4"/>
<feGaussianBlur stdDeviation="1.5"/>
<feColorMatrix type="matrix" values="0 0 0 0 0 0 0 0 0 0 0 0 0 0 0 0 0 0 0.25 0"/>
<feBlend mode="normal" in2="BackgroundImageFix" result="effect1_dropShadow"/>
<feBlend mode="normal" in="SourceGraphic" in2="effect1_dropShadow" result="shape"/>
</filter>
<filter id="filter1_d" x="0.0673065" y="30.9999" width="256.3" height="142" filterUnits="userSpaceOnUse" color-interpolation-filters="sRGB">
<feFlood flood-opacity="0" result="BackgroundImageFix"/>
<feColorMatrix in="SourceAlpha" type="matrix" values="0 0 0 0 0 0 0 0 0 0 0 0 0 0 0 0 0 0 127 0"/>
<feOffset dy="4"/>
<feGaussianBlur stdDeviation="2"/>
<feColorMatrix type="matrix" values="0 0 0 0 0 0 0 0 0 0 0 0 0 0 0 0 0 0 0.25 0"/>
<feBlend mode="normal" in2="BackgroundImageFix" result="effect1_dropShadow"/>
<feBlend mode="normal" in="SourceGraphic" in2="effect1_dropShadow" result="shape"/>
</filter>
<filter id="filter2_d" x="57" y="0" width="137" height="246.003" filterUnits="userSpaceOnUse" color-interpolation-filters="sRGB">
<feFlood flood-opacity="0" result="BackgroundImageFix"/>
<feColorMatrix in="SourceAlpha" type="matrix" values="0 0 0 0 0 0 0 0 0 0 0 0 0 0 0 0 0 0 127 0"/>
<feOffset dy="4"/>
<feGaussianBlur stdDeviation="2"/>
<feColorMatrix type="matrix" values="0 0 0 0 0 0 0 0 0 0 0 0 0 0 0 0 0 0 0.25 0"/>
<feBlend mode="normal" in2="BackgroundImageFix" result="effect1_dropShadow"/>
<feBlend mode="normal" in="SourceGraphic" in2="effect1_dropShadow" result="shape"/>
</filter>
<filter id="filter3_d" x="93" y="39" width="65" height="20" filterUnits="userSpaceOnUse" color-interpolation-filters="sRGB">
<feFlood flood-opacity="0" result="BackgroundImageFix"/>
<feColorMatrix in="SourceAlpha" type="matrix" values="0 0 0 0 0 0 0 0 0 0 0 0 0 0 0 0 0 0 127 0"/>
<feOffset dy="4"/>
<feGaussianBlur stdDeviation="2"/>
<feColorMatrix type="matrix" values="0 0 0 0 0 0 0 0 0 0 0 0 0 0 0 0 0 0 0.25 0"/>
<feBlend mode="normal" in2="BackgroundImageFix" result="effect1_dropShadow"/>
<feBlend mode="normal" in="SourceGraphic" in2="effect1_dropShadow" result="shape"/>
</filter>
</defs>
</svg>
