<svg width="927" height="601" viewBox="0 0 927 601" fill="none" xmlns="http://www.w3.org/2000/svg">
<g clip-path="url(#clip0)">
<path d="M259 600.085H1C0.734784 600.085 0.480429 599.98 0.292892 599.792C0.105356 599.605 0 599.35 0 599.085C0 598.82 0.105356 598.565 0.292892 598.378C0.480429 598.19 0.734784 598.085 1 598.085H259C259.265 598.085 259.52 598.19 259.707 598.378C259.895 598.565 260 598.82 260 599.085C260 599.35 259.895 599.605 259.707 599.792C259.52 599.98 259.265 600.085 259 600.085Z" fill="#CCCCCC"/>
<path d="M910.122 434.548H269.283C264.909 434.543 260.715 432.803 257.621 429.71C254.528 426.616 252.788 422.422 252.783 418.048V22.894C252.787 19.6892 254.061 16.6166 256.328 14.3504C258.594 12.0842 261.666 10.8094 264.871 10.8057H914.325C917.585 10.8094 920.711 12.1062 923.016 14.4116C925.321 16.717 926.618 19.8427 926.622 23.103V418.048C926.617 422.422 924.877 426.616 921.784 429.71C918.69 432.803 914.496 434.543 910.122 434.548V434.548Z" fill="#F2F2F2"/>
<path d="M889.402 413.715H292.157C283.402 413.715 276.28 407.046 276.28 398.847V54.7424C276.28 48.6623 281.558 43.7155 288.045 43.7155H893.319C899.914 43.7155 905.28 48.7438 905.28 54.924V398.847C905.28 407.046 898.157 413.715 889.402 413.715Z" fill="white"/>
<path d="M926.392 24.9502H252.552V16.5498C252.558 12.1607 254.305 7.95333 257.41 4.85072C260.514 1.74811 264.722 0.00363937 269.112 0H909.832C914.221 0.00360236 918.429 1.74806 921.534 4.85068C924.639 7.95329 926.386 12.1607 926.392 16.5498V24.9502Z" fill="#3F3D56"/>
<path d="M282.647 16.7834C285.013 16.7834 286.93 14.8657 286.93 12.5C286.93 10.1343 285.013 8.21658 282.647 8.21658C280.281 8.21658 278.364 10.1343 278.364 12.5C278.364 14.8657 280.281 16.7834 282.647 16.7834Z" fill="white"/>
<path d="M298.906 16.7834C301.271 16.7834 303.189 14.8657 303.189 12.5C303.189 10.1343 301.271 8.21658 298.906 8.21658C296.54 8.21658 294.622 10.1343 294.622 12.5C294.622 14.8657 296.54 16.7834 298.906 16.7834Z" fill="white"/>
<path d="M315.165 16.7834C317.53 16.7834 319.448 14.8657 319.448 12.5C319.448 10.1343 317.53 8.21658 315.165 8.21658C312.799 8.21658 310.881 10.1343 310.881 12.5C310.881 14.8657 312.799 16.7834 315.165 16.7834Z" fill="white"/>
<path d="M576.611 118.954H459.802C458.061 118.954 456.391 118.263 455.159 117.031C453.928 115.8 453.236 114.13 453.236 112.388C453.236 110.647 453.928 108.977 455.159 107.745C456.391 106.514 458.061 105.822 459.802 105.822H576.611C578.352 105.822 580.022 106.514 581.253 107.745C582.485 108.977 583.177 110.647 583.177 112.388C583.177 114.13 582.485 115.8 581.253 117.031C580.022 118.263 578.352 118.954 576.611 118.954V118.954Z" fill="#CCCCCC"/>
<path d="M721.757 118.954H604.949C603.207 118.954 601.537 118.263 600.306 117.031C599.074 115.8 598.382 114.13 598.382 112.388C598.382 110.647 599.074 108.977 600.306 107.745C601.537 106.514 603.207 105.822 604.949 105.822H721.757C723.498 105.822 725.168 106.514 726.4 107.745C727.631 108.977 728.323 110.647 728.323 112.388C728.323 114.13 727.631 115.8 726.4 117.031C725.168 118.263 723.498 118.954 721.757 118.954V118.954Z" fill="#CCCCCC"/>
<path d="M721.757 143.837H518.552C516.811 143.837 515.14 143.145 513.909 141.913C512.678 140.682 511.986 139.012 511.986 137.271C511.986 135.529 512.678 133.859 513.909 132.628C515.14 131.396 516.811 130.704 518.552 130.704H721.757C723.498 130.704 725.168 131.396 726.4 132.628C727.631 133.859 728.323 135.529 728.323 137.271C728.323 139.012 727.631 140.682 726.4 141.913C725.168 143.145 723.498 143.837 721.757 143.837Z" fill="#CCCCCC"/>
<path d="M576.611 93.7267H459.802C458.062 93.7245 456.394 93.0318 455.165 91.8006C453.935 90.5695 453.244 88.9006 453.244 87.1605C453.244 85.4205 453.935 83.7516 455.165 82.5204C456.394 81.2893 458.062 80.5965 459.802 80.5944H576.611C577.473 80.5933 578.328 80.7624 579.126 81.0919C579.923 81.4214 580.648 81.9049 581.259 82.5147C581.869 83.1245 582.354 83.8487 582.684 84.6459C583.015 85.4431 583.185 86.2976 583.185 87.1605C583.185 88.0235 583.015 88.878 582.684 89.6751C582.354 90.4723 581.869 91.1965 581.259 91.8064C580.648 92.4162 579.923 92.8997 579.126 93.2292C578.328 93.5587 577.473 93.7277 576.611 93.7267V93.7267Z" fill="#CCCCCC"/>
<path d="M640.889 94.0723H607.713C605.972 94.0723 604.302 93.3805 603.07 92.1491C601.839 90.9177 601.147 89.2476 601.147 87.5061C601.147 85.7647 601.839 84.0945 603.07 82.8631C604.302 81.6318 605.972 80.94 607.713 80.94H640.889C642.631 80.94 644.301 81.6318 645.532 82.8631C646.764 84.0945 647.456 85.7647 647.456 87.5061C647.456 89.2476 646.764 90.9177 645.532 92.1491C644.301 93.3805 642.631 94.0723 640.889 94.0723Z" fill="#CCCCCC"/>
<path d="M492.979 143.837H459.802C458.062 143.835 456.394 143.142 455.165 141.911C453.935 140.679 453.244 139.011 453.244 137.271C453.244 135.53 453.935 133.862 455.165 132.63C456.394 131.399 458.062 130.707 459.802 130.704H492.979C493.842 130.703 494.696 130.872 495.494 131.202C496.291 131.531 497.016 132.015 497.627 132.625C498.237 133.235 498.722 133.959 499.052 134.756C499.383 135.553 499.553 136.408 499.553 137.271C499.553 138.133 499.383 138.988 499.052 139.785C498.722 140.582 498.237 141.307 497.627 141.916C497.016 142.526 496.291 143.01 495.494 143.339C494.696 143.669 493.842 143.838 492.979 143.837Z" fill="#CCCCCC"/>
<path d="M576.611 351.954H459.802C458.061 351.954 456.391 351.263 455.159 350.031C453.928 348.8 453.236 347.13 453.236 345.388C453.236 343.647 453.928 341.977 455.159 340.745C456.391 339.514 458.061 338.822 459.802 338.822H576.611C577.473 338.822 578.327 338.992 579.123 339.322C579.92 339.652 580.644 340.136 581.253 340.745C581.863 341.355 582.347 342.079 582.677 342.876C583.007 343.672 583.177 344.526 583.177 345.388C583.177 346.251 583.007 347.104 582.677 347.901C582.347 348.698 581.863 349.422 581.253 350.031C580.644 350.641 579.92 351.125 579.123 351.455C578.327 351.785 577.473 351.954 576.611 351.954V351.954Z" fill="#CCCCCC"/>
<path d="M721.757 351.954H604.949C603.207 351.954 601.537 351.263 600.306 350.031C599.074 348.8 598.382 347.13 598.382 345.388C598.382 343.647 599.074 341.977 600.306 340.745C601.537 339.514 603.207 338.822 604.949 338.822H721.757C722.619 338.822 723.473 338.992 724.269 339.322C725.066 339.652 725.79 340.136 726.4 340.745C727.009 341.355 727.493 342.079 727.823 342.876C728.153 343.672 728.323 344.526 728.323 345.388C728.323 346.251 728.153 347.104 727.823 347.901C727.493 348.698 727.009 349.422 726.4 350.031C725.79 350.641 725.066 351.125 724.269 351.455C723.473 351.785 722.619 351.954 721.757 351.954V351.954Z" fill="#CCCCCC"/>
<path d="M721.757 376.837H518.552C516.811 376.837 515.14 376.145 513.909 374.914C512.678 373.682 511.986 372.012 511.986 370.271C511.986 368.529 512.678 366.859 513.909 365.628C515.14 364.396 516.811 363.704 518.552 363.704H721.757C722.62 363.703 723.474 363.872 724.272 364.202C725.07 364.531 725.794 365.015 726.405 365.625C727.015 366.235 727.5 366.959 727.83 367.756C728.161 368.553 728.331 369.408 728.331 370.271C728.331 371.133 728.161 371.988 727.83 372.785C727.5 373.582 727.015 374.307 726.405 374.916C725.794 375.526 725.07 376.01 724.272 376.339C723.474 376.669 722.62 376.838 721.757 376.837Z" fill="#CCCCCC"/>
<path d="M576.611 326.727H459.802C458.061 326.727 456.391 326.035 455.159 324.803C453.928 323.572 453.236 321.902 453.236 320.161C453.236 318.419 453.928 316.749 455.159 315.518C456.391 314.286 458.061 313.594 459.802 313.594H576.611C578.352 313.594 580.022 314.286 581.253 315.518C582.485 316.749 583.177 318.419 583.177 320.161C583.177 321.902 582.485 323.572 581.253 324.803C580.022 326.035 578.352 326.727 576.611 326.727Z" fill="#CCCCCC"/>
<path d="M640.889 327.072H607.713C605.972 327.072 604.302 326.38 603.07 325.149C601.839 323.918 601.147 322.248 601.147 320.506C601.147 318.765 601.839 317.095 603.07 315.863C604.302 314.632 605.972 313.94 607.713 313.94H640.889C642.631 313.94 644.301 314.632 645.532 315.863C646.764 317.095 647.456 318.765 647.456 320.506C647.456 322.248 646.764 323.918 645.532 325.149C644.301 326.38 642.631 327.072 640.889 327.072V327.072Z" fill="#CCCCCC"/>
<path d="M492.979 376.837H459.802C458.061 376.837 456.391 376.145 455.159 374.914C453.928 373.682 453.236 372.012 453.236 370.271C453.236 368.529 453.928 366.859 455.159 365.628C456.391 364.396 458.061 363.704 459.802 363.704H492.979C493.842 363.703 494.696 363.872 495.494 364.202C496.291 364.531 497.016 365.015 497.627 365.625C498.237 366.235 498.722 366.959 499.052 367.756C499.383 368.553 499.553 369.408 499.553 370.271C499.553 371.133 499.383 371.988 499.052 372.785C498.722 373.582 498.237 374.307 497.627 374.916C497.016 375.526 496.291 376.01 495.494 376.339C494.696 376.669 493.842 376.838 492.979 376.837Z" fill="#CCCCCC"/>
<path d="M546.104 281.462C543.625 281.467 541.244 280.493 539.48 278.752L495.572 235.392C494.71 234.541 494.025 233.527 493.558 232.409C493.091 231.292 492.85 230.092 492.85 228.881C492.85 227.669 493.091 226.47 493.558 225.352C494.025 224.234 494.71 223.22 495.572 222.369L539.303 179.185C541.125 177.394 543.579 176.395 546.133 176.403C548.688 176.411 551.136 177.426 552.946 179.228C554.759 181.044 555.776 183.505 555.777 186.071C555.777 188.637 554.759 191.098 552.947 192.914L520.451 225.411C519.438 226.426 518.87 227.801 518.87 229.234C518.87 230.668 519.438 232.043 520.451 233.057L552.77 265.378C554.09 266.695 554.989 268.374 555.354 270.203C555.718 272.032 555.532 273.927 554.818 275.65C554.104 277.372 552.894 278.844 551.343 279.879C549.792 280.914 547.969 281.464 546.104 281.462V281.462Z" fill="#910932"/>
<path d="M616.069 281.462C614.205 281.464 612.381 280.913 610.83 279.879C609.279 278.844 608.069 277.372 607.356 275.65C606.642 273.927 606.455 272.031 606.82 270.203C607.184 268.374 608.083 266.695 609.403 265.378L641.723 233.057C642.735 232.043 643.304 230.668 643.304 229.234C643.304 227.801 642.735 226.426 641.723 225.411L609.227 192.914C608.328 192.016 607.615 190.949 607.129 189.774C606.642 188.6 606.392 187.342 606.392 186.071C606.392 184.8 606.642 183.541 607.129 182.367C607.615 181.193 608.328 180.126 609.227 179.228V179.228C611.037 177.426 613.485 176.411 616.04 176.403C618.594 176.395 621.048 177.394 622.87 179.185L666.602 222.369C667.464 223.22 668.148 224.234 668.615 225.352C669.082 226.47 669.323 227.669 669.323 228.881C669.323 230.092 669.082 231.292 668.615 232.409C668.148 233.527 667.464 234.541 666.602 235.392L622.693 278.752C620.929 280.493 618.548 281.467 616.069 281.462Z" fill="#910932"/>
<g filter="url(#filter0_d)">
<path fill-rule="evenodd" clip-rule="evenodd" d="M57.0118 462.084C52.8684 519.113 85.109 553.095 102.921 563.315L110.386 550.304C96.8355 542.53 68.305 513.648 71.9724 463.171L57.0118 462.084ZM198.799 462.677C202.942 519.705 170.702 553.687 152.89 563.907L145.425 550.896C158.975 543.122 187.506 514.24 183.838 463.764L198.799 462.677Z" fill="#910932"/>
</g>
<g filter="url(#filter1_d)">
<path fill-rule="evenodd" clip-rule="evenodd" d="M18.6057 383.436C16.7936 381.352 13.6354 381.132 11.5518 382.944C9.46813 384.756 9.24804 387.914 11.0602 389.998L36.2212 418.929C36.7703 419.56 37.4691 420.043 38.2535 420.335L81.106 436.247C83.6947 437.208 86.5725 435.888 87.5337 433.3C88.495 430.711 87.1756 427.833 84.5869 426.872L42.9299 411.404L18.6057 383.436ZM18.8762 510.09C16.781 511.889 13.6243 511.649 11.8256 509.554C10.0268 507.458 10.2671 504.302 12.3623 502.503L35.9507 482.252C36.3085 481.944 36.7079 481.689 37.1371 481.494L61.5118 470.404C64.0253 469.26 66.99 470.371 68.1336 472.884C69.2772 475.398 68.1667 478.363 65.6532 479.506L41.9254 490.302L18.8762 510.09ZM35.6769 439.863C36.5902 439.058 37.7659 438.614 38.9835 438.614H69.0865C71.8479 438.614 74.0865 440.852 74.0865 443.614C74.0865 446.375 71.8479 448.614 69.0865 448.614H40.8728L19.3189 467.616C17.2475 469.442 14.088 469.243 12.2618 467.172C10.4357 465.1 10.6345 461.941 12.7059 460.114L35.6769 439.863ZM241.394 383.436C243.206 381.352 246.365 381.132 248.448 382.944C250.532 384.756 250.752 387.914 248.94 389.998L223.779 418.929C223.23 419.56 222.531 420.043 221.747 420.335L178.894 436.247C176.305 437.208 173.428 435.888 172.466 433.3C171.505 430.711 172.824 427.833 175.413 426.872L217.07 411.404L241.394 383.436ZM241.124 510.09C243.219 511.889 246.376 511.649 248.174 509.554C249.973 507.459 249.733 504.302 247.638 502.503L224.049 482.252C223.692 481.944 223.292 481.689 222.863 481.494L198.488 470.404C195.975 469.261 193.01 470.371 191.866 472.885C190.723 475.398 191.833 478.363 194.347 479.506L218.075 490.302L241.124 510.09ZM224.323 439.863C223.41 439.058 222.234 438.614 221.017 438.614H190.914C188.152 438.614 185.914 440.852 185.914 443.614C185.914 446.375 188.152 448.614 190.914 448.614H219.127L240.681 467.616C242.753 469.442 245.912 469.243 247.738 467.172C249.564 465.1 249.366 461.941 247.294 460.115L224.323 439.863Z" fill="#232323"/>
</g>
<g filter="url(#filter2_d)">
<path fill-rule="evenodd" clip-rule="evenodd" d="M88.0771 403.719C86.0508 408.048 85.053 411.659 84.7769 414.232L127.77 540.576L169.975 414.252C169.707 411.65 168.72 408.008 166.719 403.655C164.396 398.599 160.984 393.197 156.775 388.269C148.068 378.073 137.546 371.644 127.857 371.644C117.835 371.644 107.059 378.156 98.2034 388.337C93.9138 393.269 90.4405 398.67 88.0771 403.719ZM127.857 351.644C145.967 351.644 161.543 363.055 171.984 375.28C177.349 381.563 181.773 388.517 184.892 395.304C187.946 401.949 190.052 409.096 190.052 415.647C190.052 416.724 189.878 417.795 189.537 418.816L137.377 574.935C137.314 575.13 137.245 575.323 137.171 575.513C136.658 576.829 135.892 577.979 134.949 578.926C134.007 579.874 132.861 580.646 131.548 581.167C130.386 581.629 129.133 581.876 127.854 581.875C126.599 581.875 125.37 581.637 124.225 581.19C122.906 580.677 121.753 579.91 120.803 578.964C119.854 578.022 119.082 576.874 118.561 575.56C118.487 575.372 118.418 575.182 118.354 574.989L65.2285 418.869C64.8755 417.831 64.6954 416.743 64.6954 415.647C64.6954 409.059 66.8507 401.89 69.9632 395.24C73.1436 388.446 77.6517 381.491 83.1132 375.212C93.76 362.971 109.565 351.644 127.857 351.644Z" fill="#910932"/>
</g>
<g filter="url(#filter3_d)">
<path fill-rule="evenodd" clip-rule="evenodd" d="M105.67 401.182C108.897 401.182 111.513 398.592 111.513 395.396C111.513 392.2 108.897 389.61 105.67 389.61C102.443 389.61 99.8264 392.2 99.8264 395.396C99.8264 398.592 102.443 401.182 105.67 401.182ZM149.078 401.182C152.305 401.182 154.921 398.592 154.921 395.396C154.921 392.2 152.305 389.61 149.078 389.61C145.85 389.61 143.234 392.2 143.234 395.396C143.234 398.592 145.85 401.182 149.078 401.182Z" fill="#910932"/>
</g>
<path fill-rule="evenodd" clip-rule="evenodd" d="M74.3804 405.651C78.7642 405.528 82.7166 408.276 84.1286 412.428L90.5807 431.401C107.649 429.703 117.37 428.792 127.299 428.792C137.01 428.792 146.843 429.664 163.904 431.296L170.068 412.527C171.442 408.342 175.393 405.549 179.797 405.65C184.201 405.75 188.02 408.721 189.202 412.964C217.441 514.344 219.452 543.935 219.452 552.881C219.452 558.007 219.385 565.138 215.981 571.94C212.358 579.179 205.83 584.542 196.192 588.526C185.195 593.072 173.802 593.383 164.276 590.455C154.966 587.593 146.258 581.151 143.112 571.265C139.277 559.217 135.601 544.804 132.589 531.107C132.205 529.359 132.296 527.539 132.855 525.839L136.262 515.464C130.59 513.896 124.669 513.914 119.175 515.485L122.826 526.222C123.414 527.95 123.517 529.806 123.125 531.589C120.05 545.574 115.765 559.558 112.039 571.265C108.892 581.151 100.184 587.593 90.874 590.455C81.3482 593.383 69.9552 593.072 58.9584 588.526C49.3209 584.542 42.7923 579.179 39.1692 571.94C35.7653 565.138 35.6982 558.007 35.6982 552.881C35.6982 544.03 36.7371 514.531 65.0278 412.964C66.2045 408.739 69.9966 405.774 74.3804 405.651ZM114.337 501.259C122.954 498.645 132.217 498.657 140.943 501.211L146.007 485.792C136.691 484.889 131.741 484.473 126.816 484.473C122.065 484.473 117.456 484.86 109.047 485.702L114.337 501.259ZM157.506 450.778L152.402 466.319C140.236 465.123 133.428 464.473 126.816 464.473C120.291 464.473 113.799 465.106 102.437 466.266L97.1929 450.845C111.451 449.445 119.325 448.792 127.299 448.792C135.154 448.792 143.169 449.426 157.506 450.778ZM75.7536 449.92C56.0491 525.327 55.6982 547.482 55.6982 552.881C55.6982 558.194 56.0024 560.887 57.0544 562.989C57.8871 564.653 59.8988 567.273 66.5993 570.043C73.4258 572.865 80.0418 572.861 84.9973 571.338C90.1687 569.748 92.4144 566.979 92.981 565.199C96.4263 554.374 100.17 542.144 102.983 529.991L75.7536 449.92ZM199.452 552.881C199.452 547.578 198.423 525.591 178.656 450.477L152.713 529.469C155.52 541.95 158.816 554.663 162.17 565.199C162.736 566.979 164.982 569.748 170.153 571.338C175.109 572.861 181.725 572.865 188.551 570.043C195.252 567.273 197.263 564.653 198.096 562.989C199.148 560.887 199.452 558.194 199.452 552.881Z" fill="#232323"/>
</g>
<defs>
<filter id="filter0_d" x="53.6479" y="462.084" width="148.515" height="108.823" filterUnits="userSpaceOnUse" color-interpolation-filters="sRGB">
<feFlood flood-opacity="0" result="BackgroundImageFix"/>
<feColorMatrix in="SourceAlpha" type="matrix" values="0 0 0 0 0 0 0 0 0 0 0 0 0 0 0 0 0 0 127 0"/>
<feOffset dy="4"/>
<feGaussianBlur stdDeviation="1.5"/>
<feColorMatrix type="matrix" values="0 0 0 0 0 0 0 0 0 0 0 0 0 0 0 0 0 0 0.25 0"/>
<feBlend mode="normal" in2="BackgroundImageFix" result="effect1_dropShadow"/>
<feBlend mode="normal" in="SourceGraphic" in2="effect1_dropShadow" result="shape"/>
</filter>
<filter id="filter1_d" x="5.83289" y="381.717" width="248.334" height="137.58" filterUnits="userSpaceOnUse" color-interpolation-filters="sRGB">
<feFlood flood-opacity="0" result="BackgroundImageFix"/>
<feColorMatrix in="SourceAlpha" type="matrix" values="0 0 0 0 0 0 0 0 0 0 0 0 0 0 0 0 0 0 127 0"/>
<feOffset dy="4"/>
<feGaussianBlur stdDeviation="2"/>
<feColorMatrix type="matrix" values="0 0 0 0 0 0 0 0 0 0 0 0 0 0 0 0 0 0 0.25 0"/>
<feBlend mode="normal" in2="BackgroundImageFix" result="effect1_dropShadow"/>
<feBlend mode="normal" in="SourceGraphic" in2="effect1_dropShadow" result="shape"/>
</filter>
<filter id="filter2_d" x="60.6954" y="351.644" width="133.357" height="238.232" filterUnits="userSpaceOnUse" color-interpolation-filters="sRGB">
<feFlood flood-opacity="0" result="BackgroundImageFix"/>
<feColorMatrix in="SourceAlpha" type="matrix" values="0 0 0 0 0 0 0 0 0 0 0 0 0 0 0 0 0 0 127 0"/>
<feOffset dy="4"/>
<feGaussianBlur stdDeviation="2"/>
<feColorMatrix type="matrix" values="0 0 0 0 0 0 0 0 0 0 0 0 0 0 0 0 0 0 0.25 0"/>
<feBlend mode="normal" in2="BackgroundImageFix" result="effect1_dropShadow"/>
<feBlend mode="normal" in="SourceGraphic" in2="effect1_dropShadow" result="shape"/>
</filter>
<filter id="filter3_d" x="95.8264" y="389.61" width="63.0947" height="19.5722" filterUnits="userSpaceOnUse" color-interpolation-filters="sRGB">
<feFlood flood-opacity="0" result="BackgroundImageFix"/>
<feColorMatrix in="SourceAlpha" type="matrix" values="0 0 0 0 0 0 0 0 0 0 0 0 0 0 0 0 0 0 127 0"/>
<feOffset dy="4"/>
<feGaussianBlur stdDeviation="2"/>
<feColorMatrix type="matrix" values="0 0 0 0 0 0 0 0 0 0 0 0 0 0 0 0 0 0 0.25 0"/>
<feBlend mode="normal" in2="BackgroundImageFix" result="effect1_dropShadow"/>
<feBlend mode="normal" in="SourceGraphic" in2="effect1_dropShadow" result="shape"/>
</filter>
<clipPath id="clip0">
<rect width="926.622" height="600.085" fill="white"/>
</clipPath>
</defs>
</svg>
