<svg width="1130" height="815" viewBox="0 0 1130 815" fill="none" xmlns="http://www.w3.org/2000/svg">
<g clip-path="url(#clip0)">
<path opacity="0.1" d="M656.54 124.69C584.1 122.18 515.1 98.79 449.22 73.2C383.34 47.61 318.07 19.28 247.37 5.71001C201.89 -3.00999 149.88 -4.28999 113.24 20.14C77.97 43.6 66.58 84.14 60.46 121.69C55.85 149.97 53.14 179.69 65.76 206.2C74.53 224.57 90.1 240.02 100.87 257.62C138.32 318.88 111.87 394.41 71.25 454.21C52.25 482.27 30.12 509.03 15.43 538.9C0.739979 568.77 -6.06002 602.98 6.78998 633.44C19.54 663.64 49.9 686.28 82.8 702.28C149.61 734.68 228.34 743.96 305.11 749.21C475.05 760.83 645.9 755.8 816.29 750.76C879.35 748.89 942.68 747 1004.72 737.25C1039.16 731.84 1074.72 723.25 1099.72 702.5C1131.47 676.16 1139.34 631.56 1118.06 598.5C1082.38 543.11 983.71 529.35 958.77 469.9C945.04 437.18 959.14 400.73 979.09 370.38C1021.89 305.27 1093.63 248.16 1097.41 173.74C1100.01 122.63 1065.52 71.44 1012.2 47.26C956.3 21.91 878.8 25.1 837.56 67.06C795.12 110.28 720.5 126.91 656.54 124.69Z" fill="#910932"/>
<path d="M826.6 134.07H352.2C341.265 134.07 332.4 142.935 332.4 153.87V733.24C332.4 744.175 341.265 753.04 352.2 753.04H826.6C837.535 753.04 846.4 744.175 846.4 733.24V153.87C846.4 142.935 837.535 134.07 826.6 134.07Z" fill="#464353"/>
<path opacity="0.1" d="M802.06 192.74H376.74V686.83H802.06V192.74Z" fill="white" stroke="white" stroke-miterlimit="10"/>
<path d="M589.4 741.28C599.396 741.28 607.5 733.176 607.5 723.18C607.5 713.184 599.396 705.08 589.4 705.08C579.404 705.08 571.3 713.184 571.3 723.18C571.3 733.176 579.404 741.28 589.4 741.28Z" fill="white"/>
<path d="M589.4 178.81C587.71 178.8 586.061 178.29 584.662 177.343C583.262 176.397 582.174 175.057 581.535 173.493C580.896 171.928 580.735 170.21 581.072 168.554C581.409 166.898 582.229 165.38 583.429 164.19C584.629 163 586.154 162.192 587.813 161.868C589.471 161.545 591.188 161.72 592.747 162.372C594.306 163.023 595.637 164.122 596.572 165.53C597.507 166.937 598.004 168.59 598 170.28C597.996 171.405 597.77 172.518 597.336 173.556C596.902 174.594 596.267 175.535 595.468 176.328C594.669 177.12 593.722 177.747 592.681 178.173C591.64 178.599 590.525 178.815 589.4 178.81V178.81Z" fill="white"/>
<path d="M589.4 162.21C590.996 162.2 592.56 162.665 593.891 163.546C595.223 164.427 596.262 165.683 596.878 167.156C597.493 168.629 597.657 170.252 597.348 171.818C597.039 173.384 596.271 174.823 595.142 175.952C594.013 177.081 592.574 177.849 591.008 178.158C589.442 178.467 587.819 178.303 586.346 177.688C584.873 177.072 583.617 176.033 582.736 174.701C581.855 173.37 581.39 171.806 581.4 170.21C581.416 168.093 582.264 166.067 583.761 164.57C585.257 163.074 587.283 162.226 589.4 162.21ZM589.4 161.21C587.608 161.21 585.856 161.742 584.367 162.739C582.878 163.735 581.718 165.152 581.034 166.808C580.351 168.465 580.174 170.287 580.528 172.044C580.881 173.801 581.748 175.413 583.019 176.677C584.289 177.941 585.907 178.799 587.665 179.142C589.424 179.486 591.245 179.299 592.898 178.607C594.551 177.914 595.961 176.746 596.949 175.251C597.938 173.757 598.46 172.002 598.45 170.21C598.437 167.818 597.477 165.529 595.782 163.843C594.086 162.157 591.792 161.21 589.4 161.21V161.21Z" fill="white"/>
<path d="M582.8 287.48V269.88H596V287.48H609.42V261.09H618L589.4 234.69L560.81 261.09H569.38V287.48H582.8Z" fill="#910932"/>
<path d="M441.43 369.28V350.28C441.43 349.21 441.005 348.184 440.248 347.427C439.491 346.67 438.465 346.245 437.395 346.245C436.325 346.245 435.299 346.67 434.542 347.427C433.785 348.184 433.36 349.21 433.36 350.28V369.28C431.768 370.173 430.517 371.568 429.803 373.247C429.089 374.927 428.952 376.795 429.413 378.561C429.874 380.327 430.908 381.89 432.352 383.005C433.797 384.121 435.57 384.726 437.395 384.726C439.22 384.726 440.993 384.121 442.438 383.005C443.882 381.89 444.916 380.327 445.377 378.561C445.838 376.795 445.701 374.927 444.987 373.247C444.273 371.568 443.022 370.173 441.43 369.28V369.28ZM436 350.28C436.029 349.936 436.187 349.615 436.442 349.381C436.696 349.147 437.029 349.017 437.375 349.017C437.721 349.017 438.054 349.147 438.308 349.381C438.563 349.615 438.721 349.936 438.75 350.28V354.54H436V350.28Z" fill="white" stroke="white" stroke-miterlimit="10"/>
<path opacity="0.3" d="M733.28 364.08H493.28V366.75H733.28V364.08Z" fill="#910932"/>
<path d="M567.39 371.75C570.886 371.75 573.72 368.916 573.72 365.42C573.72 361.924 570.886 359.09 567.39 359.09C563.894 359.09 561.06 361.924 561.06 365.42C561.06 368.916 563.894 371.75 567.39 371.75Z" fill="#910932"/>
<path d="M567.39 364.08H493.28V366.75H567.39V364.08Z" fill="#910932"/>
<path d="M438.79 462.12C438.745 461.763 438.569 461.436 438.295 461.203C438.021 460.969 437.669 460.847 437.31 460.86C436.982 460.851 436.661 460.953 436.398 461.149C436.135 461.344 435.945 461.623 435.86 461.94L434.4 469.88C434.36 470.081 434.34 470.285 434.34 470.49C434.34 471.286 434.656 472.049 435.219 472.611C435.781 473.174 436.544 473.49 437.34 473.49C438.136 473.49 438.899 473.174 439.461 472.611C440.024 472.049 440.34 471.286 440.34 470.49C440.337 470.244 440.303 469.998 440.24 469.76L438.79 462.12ZM450.15 465.53C449.996 465.404 449.832 465.291 449.66 465.19L443.74 461.11C443.516 460.943 443.24 460.859 442.961 460.874C442.681 460.889 442.416 461 442.21 461.19C442.026 461.352 441.908 461.576 441.879 461.82C441.849 462.063 441.91 462.309 442.05 462.51L446.61 468.16C446.698 468.292 446.799 468.416 446.91 468.53C447.359 468.918 447.932 469.131 448.525 469.131C449.118 469.131 449.691 468.918 450.14 468.53C450.353 468.342 450.523 468.111 450.64 467.853C450.757 467.594 450.817 467.314 450.817 467.03C450.817 466.746 450.757 466.466 450.64 466.207C450.523 465.949 450.353 465.718 450.14 465.53H450.15ZM454.15 459.7L448.6 459.5C448.433 459.474 448.263 459.513 448.125 459.61C447.987 459.707 447.892 459.854 447.86 460.02C447.839 460.177 447.871 460.337 447.951 460.475C448.03 460.612 448.153 460.72 448.3 460.78V460.78L453.67 462.3C454.45 462.47 455.32 462.11 455.32 461.3C455.32 460.3 455.03 459.79 454.15 459.69V459.7ZM426.57 460.78C426.717 460.72 426.84 460.612 426.919 460.475C426.999 460.337 427.031 460.177 427.01 460.02C426.976 459.853 426.879 459.706 426.739 459.609C426.6 459.513 426.428 459.473 426.26 459.5L420.72 459.7C419.83 459.8 419.57 460.29 419.57 461.3C419.57 462.1 420.42 462.47 421.19 462.3L426.56 460.77L426.57 460.78ZM431.1 461.1L425.18 465.17C425.01 465.268 424.849 465.382 424.7 465.51C424.487 465.698 424.317 465.929 424.2 466.187C424.083 466.446 424.023 466.726 424.023 467.01C424.023 467.294 424.083 467.574 424.2 467.833C424.317 468.092 424.487 468.322 424.7 468.51C425.14 468.911 425.714 469.134 426.31 469.134C426.906 469.134 427.48 468.911 427.92 468.51C428.039 468.405 428.144 468.284 428.23 468.15L432.79 462.52C432.93 462.319 432.991 462.073 432.961 461.83C432.932 461.586 432.814 461.362 432.63 461.2C432.423 460.999 432.151 460.878 431.863 460.86C431.576 460.842 431.291 460.927 431.06 461.1H431.1ZM437.44 434.74C437.44 434.74 440.04 437.74 440.04 440.27C440.084 440.817 440.015 441.368 439.837 441.887C439.659 442.407 439.375 442.884 439.005 443.289C438.634 443.695 438.184 444.019 437.683 444.243C437.181 444.467 436.639 444.585 436.09 444.59C435.529 444.589 434.973 444.475 434.456 444.256C433.939 444.037 433.471 443.717 433.08 443.315C432.689 442.912 432.382 442.435 432.177 441.913C431.973 441.39 431.875 440.831 431.89 440.27V439.68C429.463 442.628 428.14 446.331 428.15 450.15C428.15 452.606 429.126 454.961 430.862 456.698C432.599 458.434 434.954 459.41 437.41 459.41C439.866 459.41 442.221 458.434 443.958 456.698C445.694 454.961 446.67 452.606 446.67 450.15C446.67 443.91 443.59 436.6 437.4 434.74H437.44ZM437.11 455.94C436.133 455.951 435.192 455.573 434.492 454.891C433.793 454.209 433.393 453.277 433.38 452.3C433.378 451.402 433.709 450.536 434.31 449.869C434.91 449.202 435.737 448.782 436.63 448.69C438.713 448.35 440.61 447.288 441.99 445.69C442.444 447.208 442.673 448.785 442.67 450.37C442.67 451.845 442.084 453.259 441.042 454.302C439.999 455.344 438.585 455.93 437.11 455.93V455.94Z" fill="white" stroke="white" stroke-miterlimit="10"/>
<path opacity="0.3" d="M733.28 452.65H493.28V455.32H733.28V452.65Z" fill="#910932"/>
<path d="M623.39 460.32C626.886 460.32 629.72 457.486 629.72 453.99C629.72 450.494 626.886 447.66 623.39 447.66C619.894 447.66 617.06 450.494 617.06 453.99C617.06 457.486 619.894 460.32 623.39 460.32Z" fill="#910932"/>
<path d="M624 452.65H493.28V455.32H624V452.65Z" fill="#910932"/>
<path d="M431.9 556.71C431.903 557.165 432.085 557.601 432.407 557.923C432.729 558.245 433.165 558.427 433.62 558.43H441.18C441.635 558.427 442.071 558.245 442.393 557.923C442.715 557.601 442.897 557.165 442.9 556.71V555.17H431.9V556.71ZM437.4 525.43C430.55 525.43 425.03 530.58 425.03 536.95C425.044 538.849 425.535 540.714 426.458 542.374C427.38 544.034 428.705 545.435 430.31 546.45V550.18C430.318 550.405 430.37 550.626 430.463 550.83C430.556 551.035 430.689 551.219 430.853 551.372C431.017 551.525 431.21 551.644 431.421 551.723C431.631 551.802 431.855 551.838 432.08 551.83H442.72C442.945 551.838 443.169 551.802 443.379 551.723C443.59 551.644 443.783 551.525 443.947 551.372C444.111 551.219 444.244 551.035 444.337 550.83C444.43 550.626 444.482 550.405 444.49 550.18V546.45C446.098 545.438 447.426 544.037 448.35 542.377C449.275 540.717 449.767 538.85 449.78 536.95C449.78 530.58 444.25 525.43 437.4 525.43Z" fill="white" stroke="white" stroke-miterlimit="10"/>
<path opacity="0.3" d="M733.28 540.6H493.28V543.27H733.28V540.6Z" fill="#910932"/>
<path d="M685.39 548.26C688.886 548.26 691.72 545.426 691.72 541.93C691.72 538.434 688.886 535.6 685.39 535.6C681.894 535.6 679.06 538.434 679.06 541.93C679.06 545.426 681.894 548.26 685.39 548.26Z" fill="#910932"/>
<path d="M686 540.6H493.28V543.27H686V540.6Z" fill="#910932"/>
<path d="M429.15 609.13V628.37H434.65V644.87L445.65 622.87H440.15L445.65 609.13H429.15Z" fill="white" stroke="white" stroke-miterlimit="10"/>
<path opacity="0.3" d="M733.28 625.67H493.28V628.34H733.28V625.67Z" fill="#910932"/>
<path d="M567.39 633.33C570.886 633.33 573.72 630.496 573.72 627C573.72 623.504 570.886 620.67 567.39 620.67C563.894 620.67 561.06 623.504 561.06 627C561.06 630.496 563.894 633.33 567.39 633.33Z" fill="#910932"/>
<path d="M567.39 625.67H493.28V628.34H567.39V625.67Z" fill="#910932"/>
<path d="M344.08 791.98C376.924 791.98 403.55 786.858 403.55 780.54C403.55 774.222 376.924 769.1 344.08 769.1C311.236 769.1 284.61 774.222 284.61 780.54C284.61 786.858 311.236 791.98 344.08 791.98Z" fill="#910932"/>
<path d="M343.09 784.74C346.912 784.74 350.01 780.684 350.01 775.68C350.01 770.676 346.912 766.62 343.09 766.62C339.268 766.62 336.17 770.676 336.17 775.68C336.17 780.684 339.268 784.74 343.09 784.74Z" fill="#3F3D56"/>
<path d="M343.09 773.66C346.912 773.66 350.01 769.604 350.01 764.6C350.01 759.596 346.912 755.54 343.09 755.54C339.268 755.54 336.17 759.596 336.17 764.6C336.17 769.604 339.268 773.66 343.09 773.66Z" fill="#3F3D56"/>
<path d="M343.09 762.59C346.912 762.59 350.01 758.534 350.01 753.53C350.01 748.526 346.912 744.47 343.09 744.47C339.268 744.47 336.17 748.526 336.17 753.53C336.17 758.534 339.268 762.59 343.09 762.59Z" fill="#3F3D56"/>
<path d="M343.09 751.51C346.912 751.51 350.01 747.454 350.01 742.45C350.01 737.446 346.912 733.39 343.09 733.39C339.268 733.39 336.17 737.446 336.17 742.45C336.17 747.454 339.268 751.51 343.09 751.51Z" fill="#3F3D56"/>
<path d="M343.09 740.43C346.912 740.43 350.01 736.374 350.01 731.37C350.01 726.366 346.912 722.31 343.09 722.31C339.268 722.31 336.17 726.366 336.17 731.37C336.17 736.374 339.268 740.43 343.09 740.43Z" fill="#3F3D56"/>
<path d="M343.09 729.35C346.912 729.35 350.01 725.294 350.01 720.29C350.01 715.286 346.912 711.23 343.09 711.23C339.268 711.23 336.17 715.286 336.17 720.29C336.17 725.294 339.268 729.35 343.09 729.35Z" fill="#3F3D56"/>
<path d="M343.09 718.27C346.912 718.27 350.01 714.214 350.01 709.21C350.01 704.206 346.912 700.15 343.09 700.15C339.268 700.15 336.17 704.206 336.17 709.21C336.17 714.214 339.268 718.27 343.09 718.27Z" fill="#3F3D56"/>
<path d="M369 633.41C369.944 632.202 370.806 630.933 371.58 629.61L353.38 626.61L373.06 626.76C374.944 622.652 375.972 618.203 376.081 613.685C376.189 609.167 375.375 604.674 373.69 600.48L347.31 614.18L371.65 596.28C369.37 592.337 366.302 588.907 362.637 586.201C358.973 583.496 354.791 581.575 350.351 580.557C345.912 579.539 341.31 579.446 336.834 580.284C332.357 581.122 328.1 582.873 324.33 585.428C320.559 587.983 317.355 591.287 314.918 595.134C312.48 598.982 310.861 603.29 310.161 607.791C309.461 612.291 309.695 616.888 310.85 621.294C312.004 625.7 314.053 629.821 316.87 633.4C315.403 635.262 314.136 637.273 313.09 639.4L336.71 651.67L311.53 643.28C309.762 648.505 309.325 654.089 310.257 659.526C311.189 664.963 313.462 670.082 316.87 674.42C313.025 679.312 310.633 685.187 309.969 691.373C309.305 697.56 310.395 703.808 313.114 709.405C315.834 715.001 320.073 719.72 325.347 723.021C330.621 726.322 336.718 728.073 342.94 728.073C349.162 728.073 355.259 726.322 360.533 723.021C365.807 719.72 370.046 715.001 372.765 709.405C375.485 703.808 376.575 697.56 375.911 691.373C375.246 685.187 372.855 679.312 369.01 674.42C373.603 668.574 376.1 661.355 376.1 653.92C376.1 646.485 373.603 639.266 369.01 633.42L369 633.41Z" fill="#910932"/>
<path opacity="0.1" d="M309.78 653.91C309.766 661.347 312.264 668.571 316.87 674.41C313.025 679.302 310.633 685.177 309.969 691.363C309.305 697.55 310.395 703.798 313.115 709.395C315.834 714.991 320.073 719.71 325.347 723.011C330.621 726.312 336.718 728.062 342.94 728.062C349.162 728.062 355.259 726.312 360.533 723.011C365.807 719.71 370.046 714.991 372.765 709.395C375.485 703.798 376.575 697.55 375.911 691.363C375.246 685.177 372.855 679.302 369.01 674.41C373.45 668.77 309.78 650.19 309.78 653.91Z" fill="black"/>
<path d="M213.92 698.93C264.697 698.93 305.86 691.014 305.86 681.25C305.86 671.486 264.697 663.57 213.92 663.57C163.143 663.57 121.98 671.486 121.98 681.25C121.98 691.014 163.143 698.93 213.92 698.93Z" fill="#910932"/>
<path d="M215.45 687.75C221.359 687.75 226.15 681.477 226.15 673.74C226.15 666.002 221.359 659.73 215.45 659.73C209.541 659.73 204.75 666.002 204.75 673.74C204.75 681.477 209.541 687.75 215.45 687.75Z" fill="#3F3D56"/>
<path d="M215.45 670.62C221.359 670.62 226.15 664.347 226.15 656.61C226.15 648.872 221.359 642.6 215.45 642.6C209.541 642.6 204.75 648.872 204.75 656.61C204.75 664.347 209.541 670.62 215.45 670.62Z" fill="#3F3D56"/>
<path d="M215.45 653.49C221.359 653.49 226.15 647.217 226.15 639.48C226.15 631.742 221.359 625.47 215.45 625.47C209.541 625.47 204.75 631.742 204.75 639.48C204.75 647.217 209.541 653.49 215.45 653.49Z" fill="#3F3D56"/>
<path d="M215.45 636.36C221.359 636.36 226.15 630.087 226.15 622.35C226.15 614.612 221.359 608.34 215.45 608.34C209.541 608.34 204.75 614.612 204.75 622.35C204.75 630.087 209.541 636.36 215.45 636.36Z" fill="#3F3D56"/>
<path d="M215.45 619.24C221.359 619.24 226.15 612.967 226.15 605.23C226.15 597.492 221.359 591.22 215.45 591.22C209.541 591.22 204.75 597.492 204.75 605.23C204.75 612.967 209.541 619.24 215.45 619.24Z" fill="#3F3D56"/>
<path d="M215.45 602.11C221.359 602.11 226.15 595.837 226.15 588.1C226.15 580.362 221.359 574.09 215.45 574.09C209.541 574.09 204.75 580.362 204.75 588.1C204.75 595.837 209.541 602.11 215.45 602.11Z" fill="#3F3D56"/>
<path d="M215.45 584.98C221.359 584.98 226.15 578.707 226.15 570.97C226.15 563.232 221.359 556.96 215.45 556.96C209.541 556.96 204.75 563.232 204.75 570.97C204.75 578.707 209.541 584.98 215.45 584.98Z" fill="#3F3D56"/>
<path d="M175.38 453.76C173.915 451.896 172.579 449.935 171.38 447.89L199.52 443.28L169.1 443.51C166.181 437.161 164.586 430.284 164.415 423.298C164.243 416.312 165.497 409.365 168.1 402.88L208.92 424.05L171.3 396.37C174.831 390.286 179.577 384.994 185.241 380.822C190.905 376.651 197.367 373.689 204.225 372.122C211.083 370.555 218.19 370.415 225.104 371.712C232.018 373.009 238.591 375.715 244.415 379.66C250.238 383.606 255.188 388.708 258.955 394.649C262.723 400.59 265.228 407.242 266.315 414.192C267.401 421.142 267.046 428.241 265.272 435.049C263.497 441.856 260.341 448.225 256 453.76C258.279 456.656 260.238 459.791 261.84 463.11L225.33 482.11L264.26 469.04C266.991 477.117 267.666 485.747 266.224 494.151C264.782 502.554 261.268 510.466 256 517.17C261.95 524.734 265.651 533.819 266.681 543.388C267.71 552.956 266.027 562.621 261.822 571.278C257.618 579.934 251.062 587.233 242.905 592.34C234.748 597.446 225.319 600.154 215.695 600.154C206.071 600.154 196.642 597.446 188.485 592.34C180.328 587.233 173.772 579.934 169.568 571.278C165.363 562.621 163.68 552.956 164.709 543.388C165.739 533.819 169.44 524.734 175.39 517.17C168.283 508.13 164.42 496.964 164.42 485.465C164.42 473.966 168.283 462.8 175.39 453.76H175.38Z" fill="#910932"/>
<path opacity="0.1" d="M267 485.46C267.008 496.967 263.132 508.14 256 517.17C261.95 524.734 265.651 533.82 266.681 543.388C267.71 552.956 266.027 562.621 261.822 571.278C257.618 579.934 251.062 587.233 242.905 592.34C234.748 597.446 225.319 600.154 215.695 600.154C206.071 600.154 196.642 597.446 188.485 592.34C180.328 587.233 173.772 579.934 169.568 571.278C165.363 562.621 163.68 552.956 164.709 543.388C165.739 533.82 169.44 524.734 175.39 517.17C168.51 508.44 267 479.71 267 485.46Z" fill="black"/>
<path opacity="0.1" d="M882 814.56C936.676 814.56 981 805.158 981 793.56C981 781.962 936.676 772.56 882 772.56C827.324 772.56 783 781.962 783 793.56C783 805.158 827.324 814.56 882 814.56Z" fill="#910932"/>
<path opacity="0.1" d="M195.85 121.78H132.15C127.097 121.78 123 125.877 123 130.93V170.63C123 175.683 127.097 179.78 132.15 179.78H195.85C200.903 179.78 205 175.683 205 170.63V130.93C205 125.877 200.903 121.78 195.85 121.78Z" fill="#910932"/>
<path opacity="0.1" d="M277.85 223.78H214.15C209.097 223.78 205 227.877 205 232.93V272.63C205 277.683 209.097 281.78 214.15 281.78H277.85C282.903 281.78 287 277.683 287 272.63V232.93C287 227.877 282.903 223.78 277.85 223.78Z" fill="#910932"/>
<path opacity="0.1" d="M959.85 131.78H896.15C891.097 131.78 887 135.877 887 140.93V180.63C887 185.683 891.097 189.78 896.15 189.78H959.85C964.903 189.78 969 185.683 969 180.63V140.93C969 135.877 964.903 131.78 959.85 131.78Z" fill="#910932"/>
<g filter="url(#filter0_d)">
<path fill-rule="evenodd" clip-rule="evenodd" d="M807.626 670.439C835.365 722.693 882.236 734.773 903.396 733.958L902.818 718.969C886.577 719.594 845.543 709.875 820.875 663.405L807.626 670.439ZM931.768 593.266C966.754 640.973 957.243 688.432 947.304 707.131L934.059 700.091C941.687 685.739 950.784 644.562 919.672 602.137L931.768 593.266Z" fill="#910932"/>
</g>
<g filter="url(#filter1_d)">
<path fill-rule="evenodd" clip-rule="evenodd" d="M730.35 622.769C727.709 621.964 724.915 623.453 724.11 626.095C723.305 628.736 724.794 631.53 727.436 632.335L765.431 643.91C766.232 644.154 767.081 644.193 767.901 644.024L814.225 634.436C816.929 633.876 818.667 631.23 818.108 628.526C817.548 625.822 814.902 624.084 812.198 624.643L767.124 633.973L730.35 622.769ZM800.266 733.631C799.451 736.269 796.651 737.746 794.012 736.931C791.374 736.115 789.897 733.315 790.712 730.677L800.222 699.918C800.362 699.467 800.564 699.038 800.824 698.644L816.072 675.499C817.591 673.193 820.692 672.555 822.998 674.075C825.304 675.594 825.942 678.695 824.423 681.001L809.566 703.551L800.266 733.631ZM776.62 662.834C776.965 661.664 777.726 660.661 778.759 660.012L805.139 643.459C807.478 641.991 810.564 642.698 812.032 645.037C813.5 647.376 812.793 650.462 810.454 651.929L785.677 667.477L777.243 696.081C776.462 698.73 773.682 700.244 771.033 699.463C768.385 698.682 766.871 695.902 767.652 693.253L776.62 662.834ZM925.804 500.125C926.229 497.396 928.785 495.528 931.513 495.952C934.242 496.377 936.11 498.933 935.685 501.661L929.581 540.909C929.452 541.736 929.118 542.518 928.608 543.183L899.825 580.723C898.145 582.915 895.006 583.329 892.815 581.649C890.623 579.969 890.209 576.83 891.889 574.639L919.896 538.111L925.804 500.125ZM995.215 611.303C997.945 611.717 1000.49 609.838 1000.91 607.108C1001.32 604.377 999.442 601.829 996.711 601.416L964.878 596.599C964.411 596.528 963.937 596.524 963.469 596.587L935.996 600.249C933.259 600.614 931.336 603.129 931.701 605.866C932.065 608.603 934.58 610.526 937.317 610.161L964.085 606.593L995.215 611.303ZM941.753 559.216C940.55 559.017 939.315 559.266 938.282 559.914L911.902 576.467C909.563 577.935 908.856 581.021 910.324 583.36C911.792 585.699 914.878 586.406 917.217 584.938L941.994 569.39L971.419 574.239C974.144 574.688 976.717 572.843 977.166 570.119C977.615 567.394 975.77 564.821 973.045 564.372L941.753 559.216Z" fill="#232323"/>
</g>
<g filter="url(#filter2_d)">
<path fill-rule="evenodd" clip-rule="evenodd" d="M802.101 602.234C802.721 607.226 803.862 611.02 805.078 613.484L913.248 701.516L880.349 566.276C878.651 564.08 875.724 561.37 871.51 558.606C866.656 555.423 860.658 552.54 854.223 550.516C840.923 546.332 828.043 546.448 819.437 551.848C810.541 557.43 804.656 569.188 802.499 583.052C801.453 589.775 801.385 596.463 802.101 602.234ZM808.806 534.907C824.562 525.021 844.386 526.455 860.223 531.437C868.357 533.995 876.036 537.656 882.479 541.882C888.794 546.024 894.528 551.107 898.097 556.796C898.669 557.706 899.09 558.703 899.344 559.747L939.681 725.562C939.732 725.761 939.776 725.962 939.815 726.163C940.08 727.552 940.043 728.936 939.747 730.242C939.452 731.547 938.891 732.81 938.055 733.948C937.323 734.949 936.403 735.816 935.331 736.492C934.26 737.169 933.081 737.627 931.863 737.858C930.475 738.124 929.093 738.087 927.788 737.791C926.481 737.497 925.217 736.936 924.077 736.099C923.912 735.978 923.75 735.851 923.592 735.72L790.986 627.802C790.138 627.111 789.409 626.287 788.828 625.361C785.239 619.641 783.187 612.22 782.253 604.698C781.3 597.017 781.416 588.464 782.737 579.977C785.313 563.423 792.889 544.895 808.806 534.907Z" fill="#910932"/>
</g>
<g filter="url(#filter3_d)">
<path fill-rule="evenodd" clip-rule="evenodd" d="M816.47 590.307C819.298 588.533 820.163 584.818 818.402 582.012C816.64 579.205 812.92 578.368 810.092 580.143C807.264 581.917 806.399 585.631 808.16 588.438C809.921 591.245 813.642 592.082 816.47 590.307ZM854.51 566.437C857.338 564.663 858.203 560.949 856.442 558.142C854.681 555.335 850.96 554.498 848.132 556.273C845.304 558.047 844.439 561.761 846.2 564.568C847.962 567.375 851.682 568.212 854.51 566.437Z" fill="#910932"/>
</g>
<path fill-rule="evenodd" clip-rule="evenodd" d="M791.718 611.746C795.368 609.311 800.179 609.539 803.582 612.309L819.914 625.606C834.069 614.625 842.109 608.455 850.838 602.978C859.377 597.62 868.509 592.966 884.511 584.943L879.499 564.79C878.435 560.513 880.297 556.044 884.083 553.787C887.868 551.53 892.685 552.018 895.942 554.987C976.563 628.505 994.6 653.361 999.5 661.17C1002.33 665.674 1006.15 671.904 1006.9 679.65C1007.71 687.885 1004.99 696.102 998.766 704.859C991.677 714.839 981.928 721.332 972.041 723.978C962.369 726.566 951.321 725.686 943.239 718.838C933.25 710.374 922.094 699.744 911.91 689.375C910.658 688.101 909.771 686.515 909.34 684.782L906.534 673.499C900.39 675.261 894.947 678.701 890.858 683.366L900.212 690.982C901.625 692.132 902.697 693.646 903.312 695.361C908.318 709.318 912.267 723.943 915.454 736.273C918.104 746.529 914.091 756.86 907.553 764.443C900.87 772.194 890.782 778.149 878.713 780.191C868.121 781.982 859.539 780.859 852.473 776.553C845.828 772.503 841.881 766.352 839.054 761.847C834.204 754.118 818.868 727.677 787.684 622.917C786.432 618.712 788.068 614.181 791.718 611.746ZM879.21 673.883C885.384 666.673 893.671 661.488 902.915 658.946L898.68 641.918C889.759 646.374 885.104 648.769 880.711 651.526C876.466 654.189 872.568 657.126 865.437 662.669L879.21 673.883ZM889.459 604.838L893.735 622.031C882.261 627.747 875.903 630.931 870.081 634.585C864.333 638.191 858.97 642.341 849.521 649.711L835.836 638.57C847.783 629.324 854.397 624.356 861.468 619.919C868.434 615.548 875.898 611.658 889.459 604.838ZM816.436 648.565C840.965 726.557 852.98 746.411 855.995 751.217C858.921 755.88 860.714 758.154 862.881 759.474C864.627 760.539 867.929 761.731 875.377 760.471C882.988 759.183 888.852 755.505 892.406 751.383C896.105 747.092 896.615 743.309 896.09 741.277C893.134 729.84 889.659 716.985 885.404 704.716L816.436 648.565ZM982.559 671.8C979.595 667.076 966.432 648.142 906.978 592.412L928.088 677.296C937.453 686.746 947.388 696.139 956.168 703.579C957.769 704.936 961.397 706.123 966.87 704.658C972.127 703.251 977.99 699.571 982.46 693.278C986.835 687.119 987.198 683.628 986.999 681.592C986.753 679.067 985.485 676.464 982.559 671.8Z" fill="#232323"/>
</g>
<defs>
<filter id="filter0_d" x="804.308" y="592.546" width="186.432" height="174.304" filterUnits="userSpaceOnUse" color-interpolation-filters="sRGB">
<feFlood flood-opacity="0" result="BackgroundImageFix"/>
<feColorMatrix in="SourceAlpha" type="matrix" values="0 0 0 0 0 0 0 0 0 0 0 0 0 0 0 0 0 0 127 0"/>
<feOffset dy="4"/>
<feGaussianBlur stdDeviation="1.5"/>
<feColorMatrix type="matrix" values="0 0 0 0 0 0 0 0 0 0 0 0 0 0 0 0 0 0 0.25 0"/>
<feBlend mode="normal" in2="BackgroundImageFix" result="effect1_dropShadow"/>
<feBlend mode="normal" in="SourceGraphic" in2="effect1_dropShadow" result="shape"/>
</filter>
<filter id="filter1_d" x="718" y="494" width="289.545" height="253.479" filterUnits="userSpaceOnUse" color-interpolation-filters="sRGB">
<feFlood flood-opacity="0" result="BackgroundImageFix"/>
<feColorMatrix in="SourceAlpha" type="matrix" values="0 0 0 0 0 0 0 0 0 0 0 0 0 0 0 0 0 0 127 0"/>
<feOffset dy="4"/>
<feGaussianBlur stdDeviation="2"/>
<feColorMatrix type="matrix" values="0 0 0 0 0 0 0 0 0 0 0 0 0 0 0 0 0 0 0.25 0"/>
<feBlend mode="normal" in2="BackgroundImageFix" result="effect1_dropShadow"/>
<feBlend mode="normal" in="SourceGraphic" in2="effect1_dropShadow" result="shape"/>
</filter>
<filter id="filter2_d" x="749.748" y="500.89" width="243.771" height="278.165" filterUnits="userSpaceOnUse" color-interpolation-filters="sRGB">
<feFlood flood-opacity="0" result="BackgroundImageFix"/>
<feColorMatrix in="SourceAlpha" type="matrix" values="0 0 0 0 0 0 0 0 0 0 0 0 0 0 0 0 0 0 127 0"/>
<feOffset dy="4"/>
<feGaussianBlur stdDeviation="2"/>
<feColorMatrix type="matrix" values="0 0 0 0 0 0 0 0 0 0 0 0 0 0 0 0 0 0 0.25 0"/>
<feBlend mode="normal" in2="BackgroundImageFix" result="effect1_dropShadow"/>
<feBlend mode="normal" in="SourceGraphic" in2="effect1_dropShadow" result="shape"/>
</filter>
<filter id="filter3_d" x="800.971" y="553.06" width="62.6601" height="48.4608" filterUnits="userSpaceOnUse" color-interpolation-filters="sRGB">
<feFlood flood-opacity="0" result="BackgroundImageFix"/>
<feColorMatrix in="SourceAlpha" type="matrix" values="0 0 0 0 0 0 0 0 0 0 0 0 0 0 0 0 0 0 127 0"/>
<feOffset dy="4"/>
<feGaussianBlur stdDeviation="2"/>
<feColorMatrix type="matrix" values="0 0 0 0 0 0 0 0 0 0 0 0 0 0 0 0 0 0 0.25 0"/>
<feBlend mode="normal" in2="BackgroundImageFix" result="effect1_dropShadow"/>
<feBlend mode="normal" in="SourceGraphic" in2="effect1_dropShadow" result="shape"/>
</filter>
<clipPath id="clip0">
<rect width="1130" height="814.56" fill="white"/>
</clipPath>
</defs>
</svg>
