<svg width="838" height="540" viewBox="0 0 838 540" fill="none" xmlns="http://www.w3.org/2000/svg">
<g clip-path="url(#clip0)">
<path d="M132 539.233C197.17 539.233 250 535.203 250 530.233C250 525.262 197.17 521.233 132 521.233C66.8304 521.233 14 525.262 14 530.233C14 535.203 66.8304 539.233 132 539.233Z" fill="#E6E6E6"/>
<path d="M830 459.733H354C352.012 459.73 350.105 458.94 348.699 457.533C347.293 456.127 346.502 454.221 346.5 452.233V245.233C346.502 243.244 347.293 241.338 348.699 239.932C350.105 238.526 352.012 237.735 354 237.733H830C831.988 237.735 833.895 238.526 835.301 239.932C836.707 241.338 837.498 243.244 837.5 245.233V452.233C837.498 454.221 836.707 456.127 835.301 457.533C833.895 458.94 831.988 459.73 830 459.733V459.733ZM354 240.733C352.807 240.734 351.663 241.208 350.819 242.052C349.976 242.896 349.501 244.039 349.5 245.233V452.233C349.501 453.426 349.976 454.569 350.819 455.413C351.663 456.257 352.807 456.731 354 456.733H830C831.193 456.731 832.337 456.257 833.181 455.413C834.024 454.569 834.499 453.426 834.5 452.233V245.233C834.499 244.039 834.024 242.896 833.181 242.052C832.337 241.208 831.193 240.734 830 240.733H354Z" fill="#E6E6E6"/>
<path d="M373.5 263.233C372.307 263.233 371.162 263.707 370.318 264.551C369.474 265.394 369 266.539 369 267.733C369 268.926 369.474 270.071 370.318 270.915C371.162 271.758 372.307 272.233 373.5 272.233H436.5C437.693 272.233 438.838 271.758 439.682 270.915C440.526 270.071 441 268.926 441 267.733C441 266.539 440.526 265.394 439.682 264.551C438.838 263.707 437.693 263.233 436.5 263.233H373.5Z" fill="#E6E6E6"/>
<path d="M804.79 294.528V377.977H379.96V334.04C382.901 332.15 385.861 330.27 388.847 328.452C401.601 320.647 415.253 313.348 430.13 310.643C437.167 309.331 444.376 309.241 451.443 310.377C458.909 311.61 466.054 314.182 473.129 316.763C480.106 319.317 487.1 321.951 494.397 323.432C501.508 324.828 508.808 324.972 515.968 323.858C529.628 321.809 542.462 316.319 555.242 311.352C568.103 306.359 581.354 301.641 595.272 301.02C609.013 300.399 622.584 303.645 635.622 307.672C662.205 315.876 689.348 328.044 717.496 319.698C746.078 311.237 772.368 286.812 804.044 294.058C804.344 294.113 804.611 294.281 804.79 294.528V294.528Z" fill="#E6E6E6"/>
<path d="M804.79 295.982C804.655 296.237 804.438 296.438 804.174 296.554C803.91 296.67 803.615 296.693 803.336 296.621C799.561 295.756 795.695 295.357 791.824 295.432C760.667 295.982 736.711 321.064 706.246 324.816C678.778 328.195 652.924 314.838 627.098 307.858C613.679 304.231 599.843 302.306 586.034 304.772C572.331 307.211 559.471 312.816 546.557 317.791C534.123 322.581 521.2 327.033 507.737 327.255C492.934 327.503 479.604 321.401 465.875 316.754C458.735 314.332 451.409 312.417 443.844 312.231C436.471 312.142 429.134 313.278 422.132 315.592C407.543 320.23 394.399 328.496 381.6 336.709C381.381 336.864 381.114 336.936 380.847 336.913C380.57 336.876 380.312 336.756 380.105 336.569C379.899 336.382 379.755 336.136 379.691 335.865C379.627 335.593 379.648 335.309 379.75 335.05C379.852 334.79 380.03 334.568 380.261 334.412L380.847 334.04C383.782 332.15 386.736 330.27 389.716 328.452C402.443 320.647 416.066 313.348 430.913 310.643C437.934 309.331 445.129 309.241 452.181 310.377C459.631 311.61 466.762 314.182 473.821 316.763C480.784 319.317 487.764 321.951 495.045 323.432C502.141 324.828 509.426 324.972 516.571 323.858C530.203 321.809 543.01 316.319 555.763 311.352C568.597 306.359 581.821 301.641 595.71 301.02C609.421 300.399 622.965 303.645 635.976 307.672C662.503 315.876 689.589 328.044 717.678 319.698C746.201 311.237 772.436 286.812 804.045 294.058C804.345 294.113 804.611 294.281 804.79 294.528C804.927 294.746 805 294.998 805 295.255C805 295.512 804.927 295.764 804.79 295.982V295.982Z" fill="#910932"/>
<path d="M438.496 317.667C441.925 317.667 444.704 314.888 444.704 311.459C444.704 308.03 441.925 305.251 438.496 305.251C435.067 305.251 432.287 308.03 432.287 311.459C432.287 314.888 435.067 317.667 438.496 317.667Z" fill="#910932"/>
<path d="M595.479 309.685C598.908 309.685 601.688 306.905 601.688 303.477C601.688 300.048 598.908 297.268 595.479 297.268C592.05 297.268 589.271 300.048 589.271 303.477C589.271 306.905 592.05 309.685 595.479 309.685Z" fill="#910932"/>
<path d="M787.052 301.703C790.481 301.703 793.26 298.923 793.26 295.494C793.26 292.066 790.481 289.286 787.052 289.286C783.623 289.286 780.844 292.066 780.844 295.494C780.844 298.923 783.623 301.703 787.052 301.703Z" fill="#910932"/>
<path d="M435 413.233C433.807 413.233 432.662 413.707 431.818 414.551C430.974 415.395 430.5 416.539 430.5 417.733C430.5 418.926 430.974 420.071 431.818 420.915C432.662 421.758 433.807 422.233 435 422.233H498C499.193 422.233 500.338 421.758 501.182 420.915C502.026 420.071 502.5 418.926 502.5 417.733C502.5 416.539 502.026 415.395 501.182 414.551C500.338 413.707 499.193 413.233 498 413.233H435Z" fill="#E6E6E6"/>
<path d="M394.5 434.233C403.889 434.233 411.5 426.621 411.5 417.233C411.5 407.844 403.889 400.233 394.5 400.233C385.111 400.233 377.5 407.844 377.5 417.233C377.5 426.621 385.111 434.233 394.5 434.233Z" fill="#910932"/>
<path d="M587 413.233C585.807 413.233 584.662 413.707 583.818 414.551C582.974 415.395 582.5 416.539 582.5 417.733C582.5 418.926 582.974 420.071 583.818 420.915C584.662 421.758 585.807 422.233 587 422.233H650C651.193 422.233 652.338 421.758 653.182 420.915C654.026 420.071 654.5 418.926 654.5 417.733C654.5 416.539 654.026 415.395 653.182 414.551C652.338 413.707 651.193 413.233 650 413.233H587Z" fill="#E6E6E6"/>
<path d="M546.5 434.233C555.889 434.233 563.5 426.621 563.5 417.233C563.5 407.844 555.889 400.233 546.5 400.233C537.111 400.233 529.5 407.844 529.5 417.233C529.5 426.621 537.111 434.233 546.5 434.233Z" fill="#910932"/>
<path d="M739 413.233C737.807 413.233 736.662 413.707 735.818 414.551C734.974 415.395 734.5 416.539 734.5 417.733C734.5 418.926 734.974 420.071 735.818 420.915C736.662 421.758 737.807 422.233 739 422.233H802C803.193 422.233 804.338 421.758 805.182 420.915C806.026 420.071 806.5 418.926 806.5 417.733C806.5 416.539 806.026 415.395 805.182 414.551C804.338 413.707 803.193 413.233 802 413.233H739Z" fill="#E6E6E6"/>
<path d="M698.5 434.233C707.889 434.233 715.5 426.621 715.5 417.233C715.5 407.844 707.889 400.233 698.5 400.233C689.111 400.233 681.5 407.844 681.5 417.233C681.5 426.621 689.111 434.233 698.5 434.233Z" fill="#910932"/>
<path d="M797.419 181.842H562.581C558.003 181.842 554.293 179.199 554.288 175.942V124.9C554.293 121.643 558.003 119 562.581 119H797.419C801.997 119 805.707 121.643 805.712 124.9V175.941C805.708 179.198 801.997 181.838 797.419 181.842ZM562.581 121.358C559.834 121.358 557.608 122.944 557.605 124.898V175.939C557.605 177.893 559.834 179.477 562.581 179.479H797.419C800.166 179.479 802.392 177.893 802.395 175.939V124.9C802.395 122.946 800.166 121.362 797.419 121.36L562.581 121.358Z" fill="#E6E6E6"/>
<path d="M615.679 148.007C614.353 148.009 613.083 148.536 612.145 149.473C611.208 150.411 610.681 151.682 610.679 153.007V188.007C610.681 189.333 611.208 190.604 612.145 191.541C613.083 192.478 614.353 193.006 615.679 193.007H794.679C796.005 193.006 797.276 192.478 798.213 191.541C799.15 190.604 799.678 189.333 799.679 188.007V153.007C799.678 151.682 799.15 150.411 798.213 149.473C797.276 148.536 796.005 148.009 794.679 148.007H615.679Z" fill="#910932"/>
<path d="M640.679 182.007C646.754 182.007 651.679 177.082 651.679 171.007C651.679 164.932 646.754 160.007 640.679 160.007C634.604 160.007 629.679 164.932 629.679 171.007C629.679 177.082 634.604 182.007 640.679 182.007Z" fill="white"/>
<path d="M690.811 166.233C689.617 166.233 688.473 166.707 687.629 167.551C686.785 168.394 686.311 169.539 686.311 170.733C686.311 171.926 686.785 173.071 687.629 173.915C688.473 174.758 689.617 175.233 690.811 175.233H753.811C755.004 175.233 756.149 174.758 756.993 173.915C757.837 173.071 758.311 171.926 758.311 170.733C758.311 169.539 757.837 168.394 756.993 167.551C756.149 166.707 755.004 166.233 753.811 166.233H690.811Z" fill="white"/>
<path d="M621.419 62.842H386.581C382.003 62.842 378.293 60.199 378.288 56.942V5.89998C378.293 2.64298 382.003 -3.05176e-05 386.581 -3.05176e-05H621.419C625.997 -3.05176e-05 629.707 2.64298 629.712 5.89998V56.941C629.708 60.198 625.997 62.838 621.419 62.842ZM386.581 2.35797C383.834 2.35797 381.608 3.94396 381.605 5.89796V56.939C381.605 58.893 383.834 60.477 386.581 60.479H621.419C624.166 60.479 626.392 58.893 626.395 56.939V5.89998C626.395 3.94598 624.166 2.36197 621.419 2.35997L386.581 2.35797Z" fill="#E6E6E6"/>
<path d="M439.679 29.0071C438.353 29.0087 437.083 29.536 436.145 30.4733C435.208 31.4107 434.681 32.6815 434.679 34.0071V69.0071C434.681 70.3327 435.208 71.6036 436.145 72.541C437.083 73.4783 438.353 74.0056 439.679 74.0071H618.679C620.005 74.0056 621.276 73.4783 622.213 72.541C623.15 71.6036 623.678 70.3327 623.679 69.0071V34.0071C623.678 32.6815 623.15 31.4107 622.213 30.4733C621.276 29.536 620.005 29.0087 618.679 29.0071H439.679Z" fill="#910932"/>
<path d="M464.679 63.0071C470.754 63.0071 475.679 58.0823 475.679 52.0071C475.679 45.932 470.754 41.0071 464.679 41.0071C458.604 41.0071 453.679 45.932 453.679 52.0071C453.679 58.0823 458.604 63.0071 464.679 63.0071Z" fill="white"/>
<path d="M514.811 47.2326C513.617 47.2326 512.473 47.7067 511.629 48.5506C510.785 49.3945 510.311 50.5391 510.311 51.7326C510.311 52.926 510.785 54.0706 511.629 54.9146C512.473 55.7585 513.617 56.2326 514.811 56.2326H577.811C579.004 56.2326 580.149 55.7585 580.993 54.9146C581.837 54.0706 582.311 52.926 582.311 51.7326C582.311 50.5391 581.837 49.3945 580.993 48.5506C580.149 47.7067 579.004 47.2326 577.811 47.2326H514.811Z" fill="white"/>
</g>
<g filter="url(#filter0_d)">
<path fill-rule="evenodd" clip-rule="evenodd" d="M86.1964 329.342C67.8644 392.913 96.2555 438.998 113.817 454.687L123.81 443.5C109.913 431.085 84.0973 390.757 100.609 333.498L86.1964 329.342ZM245.459 363.699C236.509 429.251 191.902 459.914 169.495 467.157L164.881 452.884C182.613 447.152 222.535 420.714 230.597 361.669L245.459 363.699Z" fill="#910932"/>
</g>
<g filter="url(#filter1_d)">
<path fill-rule="evenodd" clip-rule="evenodd" d="M59.3962 230.363C58.0539 227.95 55.0094 227.082 52.5962 228.424C50.1829 229.766 49.3147 232.811 50.657 235.224L72.4 274.316C72.8068 275.047 73.3905 275.664 74.0978 276.111L119.175 304.609C121.509 306.085 124.597 305.389 126.073 303.055C127.548 300.721 126.853 297.632 124.518 296.157L80.5193 268.34L59.3962 230.363ZM29.4864 373.865C27.0646 375.191 24.0258 374.304 22.699 371.882C21.3722 369.46 22.2598 366.421 24.6816 365.094L56.4913 347.667C56.9048 347.441 57.3483 347.274 57.8085 347.171L88.3062 340.391C91.0018 339.792 93.6729 341.491 94.2721 344.187C94.8714 346.882 93.172 349.554 90.4764 350.153L60.6727 356.779L29.4864 373.865ZM66.4115 299.211C67.4715 298.612 68.7136 298.42 69.9049 298.672L104.266 305.932C106.968 306.503 108.696 309.156 108.125 311.858C107.554 314.56 104.901 316.287 102.199 315.716L69.6861 308.847L40.2261 325.493C37.822 326.852 34.7717 326.004 33.4132 323.6C32.0547 321.196 32.9024 318.146 35.3066 316.787L66.4115 299.211ZM314.932 284.355C317.136 282.691 320.271 283.129 321.935 285.332C323.599 287.536 323.162 290.672 320.958 292.336L285.26 319.291C284.592 319.795 283.809 320.123 282.981 320.246L230.229 328.074C227.497 328.479 224.954 326.593 224.549 323.862C224.144 321.13 226.03 318.588 228.761 318.182L280.252 310.542L314.932 284.355ZM284.237 427.69C285.915 429.883 289.053 430.301 291.246 428.623C293.439 426.945 293.856 423.807 292.178 421.614L270.137 392.808C269.851 392.434 269.513 392.102 269.133 391.822L243.985 373.284C241.762 371.646 238.632 372.119 236.993 374.342C235.355 376.565 235.828 379.695 238.051 381.334L262.627 399.45L284.237 427.69ZM280.666 344.481C279.939 343.504 278.881 342.826 277.689 342.575L243.328 335.314C240.626 334.743 237.973 336.471 237.402 339.173C236.831 341.874 238.559 344.527 241.261 345.098L273.774 351.968L293.982 379.109C295.631 381.324 298.763 381.783 300.978 380.133C303.193 378.484 303.652 375.352 302.003 373.137L280.666 344.481Z" fill="#232323"/>
</g>
<g filter="url(#filter2_d)">
<path fill-rule="evenodd" clip-rule="evenodd" d="M133.201 268.862C129.65 273.572 127.496 277.756 126.531 280.912L145.769 440.763L227.091 302.181C227.5 298.875 227.243 294.15 225.94 288.392C224.472 281.905 221.824 274.772 218.138 268.001C210.552 254.068 199.766 243.698 188.02 241.216C175.905 238.657 161.541 243.798 148.796 253.42C142.592 258.105 137.213 263.541 133.201 268.862ZM192.154 221.648C212.14 225.871 226.841 242.16 235.703 258.438C240.241 266.772 243.559 275.633 245.447 283.978C247.301 292.171 247.937 300.575 246.425 307.731C246.202 308.785 245.811 309.796 245.266 310.725L148.065 476.367C147.964 476.543 147.858 476.715 147.747 476.884C146.973 478.067 145.985 479.036 144.865 479.768C143.744 480.504 142.458 481.024 141.061 481.26C140.076 481.428 139.064 481.45 138.06 481.316C137.526 481.245 137.003 481.131 136.495 480.978C135.57 480.698 134.697 480.287 133.9 479.764C132.718 478.99 131.75 478.003 131.017 476.883C130.282 475.762 129.762 474.477 129.526 473.08C129.492 472.883 129.464 472.685 129.442 472.487L106.452 281.449C106.321 280.361 106.37 279.259 106.596 278.187C108.116 270.994 112.155 263.555 117.231 256.822C122.403 249.962 129.116 243.219 136.745 237.459C151.669 226.192 171.949 217.379 192.154 221.648Z" fill="#910932"/>
</g>
<g filter="url(#filter3_d)">
<path fill-rule="evenodd" clip-rule="evenodd" d="M155.225 271.213C158.909 271.991 162.52 269.665 163.29 266.018C164.061 262.37 161.7 258.782 158.016 258.004C154.332 257.225 150.721 259.551 149.95 263.199C149.18 266.847 151.541 270.435 155.225 271.213ZM204.774 281.682C208.457 282.461 212.068 280.134 212.839 276.487C213.61 272.839 211.248 269.251 207.565 268.473C203.881 267.695 200.27 270.021 199.499 273.668C198.728 277.316 201.09 280.904 204.774 281.682Z" fill="#910932"/>
</g>
<path fill-rule="evenodd" clip-rule="evenodd" d="M118.133 270.408C122.447 271.194 125.746 274.699 126.269 279.053L129.216 303.581C149.95 305.849 161.424 307.149 172.91 309.576C184.15 311.951 195.323 315.388 215.208 321.62L227.439 300.531C229.649 296.72 234.092 294.805 238.379 295.813C242.667 296.822 245.79 300.518 246.069 304.914C253.851 427.434 248.993 461.499 246.887 471.47C245.647 477.336 243.908 485.094 238.655 491.694C233.097 498.677 224.767 503.078 213.065 505.253C199.786 507.721 187.101 505.385 177.283 499.939C167.661 494.601 159.738 485.559 158.602 474.221C157.137 459.61 156.418 442.325 156.284 425.996C156.269 424.206 156.735 422.445 157.633 420.897L164.673 408.758C157.477 404.621 149.251 402.914 141.264 403.857L142.997 418.278C143.214 420.09 142.932 421.928 142.18 423.591C135.33 438.739 127.099 453.612 120.026 466.07C114.399 475.98 103.496 481.044 92.5379 482.033C81.355 483.042 68.8094 480.047 57.6637 472.418C47.8422 465.696 42.0044 458.302 39.7461 449.667C37.6119 441.506 39.1594 433.708 40.3989 427.842C42.486 417.964 50.7021 384.702 107.47 275.629C109.495 271.739 113.818 269.622 118.133 270.408ZM139.473 388.95C150.75 387.613 162.242 390.058 172.193 395.791L183.348 376.557C171.631 372.861 165.66 371.032 159.619 369.756C153.751 368.516 147.948 367.825 136.79 366.622L139.473 388.95ZM187.6 409.09L187.658 409.044C187.652 409.036 187.646 409.029 187.64 409.022L228.028 339.38C232.931 434.497 228.67 460.942 227.319 467.336C226.041 473.384 224.987 476.751 223.006 479.239C221.331 481.344 217.987 483.996 209.41 485.59C200.568 487.233 192.622 485.577 186.984 482.449C181.149 479.212 178.79 475.1 178.502 472.226C177.196 459.197 176.497 443.656 176.311 428.556L187.6 409.09ZM204.921 339.358L193.63 358.827L193.555 358.804L193.555 358.804C179.185 354.261 171.44 351.812 163.753 350.188C156.143 348.58 148.427 347.746 134.342 346.241L131.666 323.97C149.608 325.947 159.213 327.123 168.776 329.144C178.189 331.133 187.627 333.954 204.921 339.358ZM110.316 313.934C67.3605 399.239 61.338 425.487 59.9669 431.976C58.6888 438.025 58.2908 441.53 59.0954 444.607C59.7761 447.21 61.7616 450.987 68.9604 455.914C76.3823 460.995 84.3193 462.693 90.7401 462.114C97.3858 461.514 101.207 458.707 102.633 456.195C109.251 444.54 116.588 431.275 122.803 417.868L110.316 313.934Z" fill="#232323"/>
<defs>
<filter id="filter0_d" x="58.4697" y="329.255" width="190.544" height="155.932" filterUnits="userSpaceOnUse" color-interpolation-filters="sRGB">
<feFlood flood-opacity="0" result="BackgroundImageFix"/>
<feColorMatrix in="SourceAlpha" type="matrix" values="0 0 0 0 0 0 0 0 0 0 0 0 0 0 0 0 0 0 127 0"/>
<feOffset dy="4"/>
<feGaussianBlur stdDeviation="1.5"/>
<feColorMatrix type="matrix" values="0 0 0 0 0 0 0 0 0 0 0 0 0 0 0 0 0 0 0.25 0"/>
<feBlend mode="normal" in2="BackgroundImageFix" result="effect1_dropShadow"/>
<feBlend mode="normal" in="SourceGraphic" in2="effect1_dropShadow" result="shape"/>
</filter>
<filter id="filter1_d" x="16.2607" y="226.868" width="311.61" height="211.899" filterUnits="userSpaceOnUse" color-interpolation-filters="sRGB">
<feFlood flood-opacity="0" result="BackgroundImageFix"/>
<feColorMatrix in="SourceAlpha" type="matrix" values="0 0 0 0 0 0 0 0 0 0 0 0 0 0 0 0 0 0 127 0"/>
<feOffset dy="4"/>
<feGaussianBlur stdDeviation="2"/>
<feColorMatrix type="matrix" values="0 0 0 0 0 0 0 0 0 0 0 0 0 0 0 0 0 0 0.25 0"/>
<feBlend mode="normal" in2="BackgroundImageFix" result="effect1_dropShadow"/>
<feBlend mode="normal" in="SourceGraphic" in2="effect1_dropShadow" result="shape"/>
</filter>
<filter id="filter2_d" x="62.8501" y="206.76" width="202.667" height="297.084" filterUnits="userSpaceOnUse" color-interpolation-filters="sRGB">
<feFlood flood-opacity="0" result="BackgroundImageFix"/>
<feColorMatrix in="SourceAlpha" type="matrix" values="0 0 0 0 0 0 0 0 0 0 0 0 0 0 0 0 0 0 127 0"/>
<feOffset dy="4"/>
<feGaussianBlur stdDeviation="2"/>
<feColorMatrix type="matrix" values="0 0 0 0 0 0 0 0 0 0 0 0 0 0 0 0 0 0 0.25 0"/>
<feBlend mode="normal" in2="BackgroundImageFix" result="effect1_dropShadow"/>
<feBlend mode="normal" in="SourceGraphic" in2="effect1_dropShadow" result="shape"/>
</filter>
<filter id="filter3_d" x="144.555" y="256.594" width="73.6797" height="34.497" filterUnits="userSpaceOnUse" color-interpolation-filters="sRGB">
<feFlood flood-opacity="0" result="BackgroundImageFix"/>
<feColorMatrix in="SourceAlpha" type="matrix" values="0 0 0 0 0 0 0 0 0 0 0 0 0 0 0 0 0 0 127 0"/>
<feOffset dy="4"/>
<feGaussianBlur stdDeviation="2"/>
<feColorMatrix type="matrix" values="0 0 0 0 0 0 0 0 0 0 0 0 0 0 0 0 0 0 0.25 0"/>
<feBlend mode="normal" in2="BackgroundImageFix" result="effect1_dropShadow"/>
<feBlend mode="normal" in="SourceGraphic" in2="effect1_dropShadow" result="shape"/>
</filter>
<clipPath id="clip0">
<rect width="823.5" height="539.233" fill="white" transform="translate(14)"/>
</clipPath>
</defs>
</svg>
